<svg width="1440" height="742" viewBox="0 0 1440 742" fill="none" xmlns="http://www.w3.org/2000/svg">
<path opacity="0.12" d="M1211 384.042C1272.88 384.042 1323.04 333.879 1323.04 272C1323.04 210.121 1272.88 159.958 1211 159.958C1149.12 159.958 1098.96 210.121 1098.96 272C1098.96 333.879 1149.12 384.042 1211 384.042Z" fill="#BD4520"/>
<path opacity="0.03" d="M1211 411.695C1288.15 411.695 1350.7 349.151 1350.7 272C1350.7 194.849 1288.15 132.305 1211 132.305C1133.85 132.305 1071.31 194.849 1071.31 272C1071.31 349.151 1133.85 411.695 1211 411.695Z" fill="#BD4520"/>
<path opacity="0.03" d="M1211 442.209C1305 442.209 1381.21 366.004 1381.21 272C1381.21 177.996 1305 101.791 1211 101.791C1117 101.791 1040.79 177.996 1040.79 272C1040.79 366.004 1117 442.209 1211 442.209Z" fill="#BD4520"/>
<path opacity="0.03" d="M1401.85 302.947C1418.95 197.55 1347.38 98.2428 1241.98 81.1375C1136.59 64.0323 1037.28 135.607 1020.17 241.004C1003.07 346.401 1074.64 445.709 1180.04 462.814C1285.44 479.919 1384.74 408.345 1401.85 302.947Z" fill="#BD4520"/>
<path opacity="0.03" d="M1211 500.375C1337.13 500.375 1439.38 398.128 1439.38 272C1439.38 145.872 1337.13 43.6249 1211 43.6249C1084.87 43.6249 982.625 145.872 982.625 272C982.625 398.128 1084.87 500.375 1211 500.375Z" fill="#BD4520"/>
<path opacity="0.04" d="M1211 544C1361.22 544 1483 422.221 1483 272C1483 121.779 1361.22 0 1211 0C1060.78 0 939 121.779 939 272C939 422.221 1060.78 544 1211 544Z" fill="#BD4520"/>
<path d="M1211 354.959C1256.82 354.959 1293.96 317.817 1293.96 272C1293.96 226.183 1256.82 189.041 1211 189.041C1165.18 189.041 1128.04 226.183 1128.04 272C1128.04 317.817 1165.18 354.959 1211 354.959Z" fill="#BD4520"/>
<path d="M698 474.499L1044.65 147L1167.33 475L698 474.499Z" fill="#E48E35"/>
<path d="M1044.65 147L1343.62 451.481L1167.33 475L1044.65 147Z" fill="#DB7A1A"/>
<path opacity="0.23" d="M1042.32 216.499C1058.21 217.558 1075.79 217.77 1090.84 211.625C1094.86 209.93 1098.04 207.811 1100.8 205.269L1043.8 147L978.114 206.752C999.514 210.142 1020.91 215.016 1042.32 216.499Z" fill="#EC8825"/>
<g opacity="0.2">
<path opacity="0.2" d="M940.141 242.324L940.089 244.018L992.399 245.603L992.45 243.909L940.141 242.324Z" fill="#422100"/>
</g>
<g opacity="0.2">
<path opacity="0.2" d="M1101.64 299.346H1020.91V301.041H1101.64V299.346Z" fill="#422100"/>
</g>
<g opacity="0.2">
<path opacity="0.2" d="M1036.81 279.429H1002.69V281.124H1036.81V279.429Z" fill="#422100"/>
</g>
<g opacity="0.2">
<path opacity="0.2" d="M1017.74 312.695H991.674V314.39H1017.74V312.695Z" fill="#422100"/>
</g>
<g opacity="0.2">
<path opacity="0.2" d="M905.225 374.566H792.713V376.261H905.225V374.566Z" fill="#422100"/>
</g>
<g opacity="0.2">
<path opacity="0.2" d="M942.517 389.61H891.876V391.305H942.517V389.61Z" fill="#422100"/>
</g>
<g opacity="0.2">
<path opacity="0.2" d="M1091.47 381.77H1044.01V383.465H1091.47V381.77Z" fill="#422100"/>
</g>
<g opacity="0.2">
<path opacity="0.2" d="M1047.19 395.119H1025.79V396.814H1047.19V395.119Z" fill="#422100"/>
</g>
<path opacity="0.24" d="M1144.38 248.567L1111.15 250.124L1111.23 251.818L1144.46 250.26L1144.38 248.567Z" fill="#A95F17"/>
<path opacity="0.24" d="M1141.44 284.156L1096.97 285.722L1097.03 287.416L1141.5 285.85L1141.44 284.156Z" fill="#A95F17"/>
<path opacity="0.24" d="M1166.86 271.614L1150.14 272.4L1150.22 274.093L1166.94 273.308L1166.86 271.614Z" fill="#A95F17"/>
<path opacity="0.36" d="M1043.8 147L1343.62 451.481L1321.37 455.295L1043.8 147Z" fill="#F9EBB4"/>
<path d="M1443.56 334.229C1443.56 334.229 1315.37 354.419 1103.01 391.586C890.659 428.982 803.057 460.643 681.744 466.379C560.432 472.115 243.505 437.471 162.554 446.189C81.602 454.908 -6 477.85 -6 477.85V742H1447C1447 742 1443.56 325.511 1443.56 334.229Z" fill="url(#paint0_linear)"/>
<path d="M934 506.109L1237.1 220L1344.8 507L934 506.109Z" fill="#FAB74F"/>
<path d="M1237.1 220L1499 486.395L1344.8 507L1237.1 220Z" fill="#EC8825"/>
<path opacity="0.42" d="M1208.26 290.646C1217.09 294.473 1224.74 300.36 1234.16 302.715C1241.81 304.481 1249.16 303.598 1256.82 302.715C1272.12 301.243 1291.83 302.126 1305.96 295.65C1307.14 295.062 1308.31 294.473 1309.49 293.884L1237.1 220L1167.95 282.993C1181.48 283.287 1194.72 284.759 1208.26 290.646Z" fill="#EC8825"/>
<g opacity="0.47">
<path opacity="0.47" d="M1215.62 323.614H1122.92V325.969H1215.62V323.614Z" fill="#A94D29"/>
</g>
<g opacity="0.47">
<path opacity="0.47" d="M1288.89 364.236H1212.38V366.591H1288.89V364.236Z" fill="#A94D29"/>
</g>
<g opacity="0.47">
<path opacity="0.47" d="M1230.33 344.514H1196.2V346.869H1230.33V344.514Z" fill="#A94D29"/>
</g>
<g opacity="0.47">
<path opacity="0.47" d="M1155.59 373.95H1119.68V376.305H1155.59V373.95Z" fill="#A94D29"/>
</g>
<g opacity="0.47">
<path opacity="0.47" d="M1180.01 388.668H1147.35V391.023H1180.01V388.668Z" fill="#A94D29"/>
</g>
<g opacity="0.47">
<path opacity="0.47" d="M1316.55 424.285H1191.19V426.64H1316.55V424.285Z" fill="#A94D29"/>
</g>
<g opacity="0.47">
<path opacity="0.47" d="M1209.14 445.479H1126.16V447.834H1209.14V445.479Z" fill="#A94D29"/>
</g>
<g opacity="0.47">
<path opacity="0.47" d="M1078.78 439.003H995.797V441.358H1078.78V439.003Z" fill="#A94D29"/>
</g>
<g opacity="0.47">
<path opacity="0.47" d="M1096.73 456.959H1052.89V459.314H1096.73V456.959Z" fill="#A94D29"/>
</g>
<g opacity="0.47">
<path opacity="0.47" d="M1106.44 403.386H1062.6V405.74H1106.44V403.386Z" fill="#A94D29"/>
</g>
<g opacity="0.47">
<path opacity="0.47" d="M1336.27 339.804H1279.18V342.159H1336.27V339.804Z" fill="#A94D29"/>
</g>
<g opacity="0.47">
<path opacity="0.47" d="M1393.06 385.43H1344.21V387.785H1393.06V385.43Z" fill="#A94D29"/>
</g>
<g opacity="0.47">
<path opacity="0.47" d="M1358.93 370.712H1323.03V373.067H1358.93V370.712Z" fill="#A94D29"/>
</g>
<g opacity="0.47">
<path opacity="0.47" d="M1381.59 450.483H1326.26V452.838H1381.59V450.483Z" fill="#A94D29"/>
</g>
<g opacity="0.47">
<path opacity="0.47" d="M1430.73 419.575H1404.54V421.93H1430.73V419.575Z" fill="#A94D29"/>
</g>
<defs>
<linearGradient id="paint0_linear" x1="720.458" y1="701.922" x2="720.458" y2="334" gradientUnits="userSpaceOnUse">
<stop stop-color="white"/>
<stop offset="0.208333" stop-color="#F9EBB4"/>
<stop offset="0.9949" stop-color="#EC8825"/>
</linearGradient>
</defs>
</svg>
