<svg width="120" height="76" viewBox="0 0 120 76" fill="none" xmlns="http://www.w3.org/2000/svg">
<g clip-path="url(#clip0)">
<path fill-rule="evenodd" clip-rule="evenodd" d="M71.1901 24.294C70.537 23.4712 64.7895 20.1367 64.7895 20.1367C60.566 19.4006 57.5617 22.6484 56.6909 26.0262C50.8128 24.0342 47.1117 23.9043 45.1088 17.2353C45.1088 17.2353 42.8447 19.3573 43.5414 23.2114C44.238 27.0655 46.4586 32.0456 55.1669 33.6045C63.8752 35.1635 70.8418 37.0689 72.5835 33.4313C74.3686 29.837 71.1901 24.294 71.1901 24.294Z" fill="#404041"/>
<path fill-rule="evenodd" clip-rule="evenodd" d="M46.0232 51.3162C48.6357 51.3162 50.7692 53.1783 50.7692 55.4735C50.7692 57.7686 48.6357 59.6308 46.0232 59.6308C43.4107 59.6308 41.2772 57.7686 41.2772 55.4735C41.2772 53.1783 43.4107 51.3162 46.0232 51.3162Z" fill="#404041"/>
<path fill-rule="evenodd" clip-rule="evenodd" d="M53.3817 55.6467C53.4253 56.9458 50.5515 57.6387 47.1553 58.4615C43.8026 59.2843 38.8389 56.9892 39.7968 53.4382C40.7547 49.8872 43.8026 48.4581 47.1989 49.1077C52.0319 50.0604 53.3817 55.6467 53.3817 55.6467Z" fill="#C96C38"/>
<path fill-rule="evenodd" clip-rule="evenodd" d="M39.7968 53.4382C40.7547 49.8872 43.8026 48.4581 47.1988 49.1077C49.6807 49.584 51.2482 51.2729 52.1626 52.8319C46.9811 47.8518 41.4078 54.5641 41.4078 57.2923C40.1451 56.3829 39.3614 55.0404 39.7968 53.4382Z" fill="#A15641"/>
<path fill-rule="evenodd" clip-rule="evenodd" d="M51.2917 38.4114C50.3338 40.3601 48.9405 44.0843 48.0261 50.3635C45.8491 51.2729 44.8476 49.5407 44.8476 49.5407L44.9782 37.502L51.2917 38.4114Z" fill="#C96C38"/>
<path fill-rule="evenodd" clip-rule="evenodd" d="M48.5922 38.0216C47.7213 40.8798 46.328 45.9464 46.2845 50.58C45.3266 50.3202 44.8476 49.5407 44.8476 49.5407C44.4993 44.5174 44.5864 40.9231 44.8476 37.502L48.5922 38.0216Z" fill="#A15641"/>
<path fill-rule="evenodd" clip-rule="evenodd" d="M46.4586 20.2667C45.1088 18.3613 44.4122 17.5385 44.4122 17.5385C44.4122 17.5385 49.9419 14.8969 52.8157 16.5425C54.2961 17.3652 55.7765 18.6211 56.865 20.4832C60.3048 26.3727 55.6459 28.8843 55.6459 28.8843L54.6444 28.4946C50.2903 26.5892 47.7213 21.9989 46.4586 20.2667Z" fill="#DCEFE2"/>
<path fill-rule="evenodd" clip-rule="evenodd" d="M98.926 28.841C96.8795 27.0655 94.3106 24.6405 91.4804 23.2547C88.6502 21.8689 85.6459 20.7863 86.9086 24.6405C88.1713 28.4946 90.8708 32.1322 92.9608 33.4746C95.0508 34.8171 98.926 28.841 98.926 28.841Z" fill="#A15641"/>
<path fill-rule="evenodd" clip-rule="evenodd" d="M95.7039 32.6519C93.1785 30.1835 92.6996 30.0536 89.9565 26.416C87.2134 22.8217 87.4311 21.9556 88.6502 22.0855C89.4775 22.302 90.479 22.735 91.4804 23.2114C94.3106 24.5972 96.9231 27.0222 98.926 28.7977C98.926 28.841 97.3585 31.2661 95.7039 32.6519Z" fill="#C96C38"/>
<path fill-rule="evenodd" clip-rule="evenodd" d="M20.4644 4.54701C19.2888 3.76752 11.0595 -0.433049 0.174169 0.0866088C-2.69956 0.216523 44.4557 34.514 50.8563 37.7185C57.9971 39.8838 67.1408 39.1909 69.4049 38.8011C50.7257 24.7271 29.0856 10.0467 20.4644 4.54701Z" fill="#C96C38"/>
<path fill-rule="evenodd" clip-rule="evenodd" d="M2.09072 0.0430766C1.61177 0.0430766 0.610314 -0.0868379 0.131359 0.0863815C-2.61175 1.08239 44.4565 34.5137 50.8571 37.7183C58.6945 40.1434 66.4449 39.4505 69.4057 38.8009C61.8295 36.6357 56.4739 36.5058 51.2489 36.5491L2.09072 0.0430766Z" fill="#A15641"/>
<path fill-rule="evenodd" clip-rule="evenodd" d="M31.9594 37.2855C33.9623 38.498 34.7025 40.8798 33.6139 42.612C32.5689 44.3442 30.0871 44.7772 28.0842 43.5647C26.0813 42.3521 25.3411 39.9704 26.4296 38.2382C27.5181 36.5493 29.9565 36.1163 31.9594 37.2855Z" fill="#404041"/>
<path fill-rule="evenodd" clip-rule="evenodd" d="M35.4862 43.9111C34.9202 44.9071 32.3948 44.1276 29.4775 43.1749C26.5602 42.2655 23.9042 38.2815 26.2554 36.0296C28.6067 33.7778 31.611 34.1242 33.8316 36.1596C37.0972 39.1043 35.4862 43.9111 35.4862 43.9111Z" fill="#C96C38"/>
<path fill-rule="evenodd" clip-rule="evenodd" d="M26.2554 36.0729C28.6067 33.8211 31.611 34.1675 33.8316 36.2029C35.4862 37.7185 35.8781 39.7106 35.8345 41.2695C34.267 35.1202 26.9086 37.6319 25.6894 39.7106C25.1669 38.4114 25.2104 37.069 26.2554 36.0729Z" fill="#A15641"/>
<path fill-rule="evenodd" clip-rule="evenodd" d="M41.8868 30.0103C40.2322 31.0496 37.4891 33.2148 33.8752 37.5453C31.7852 37.2422 31.8287 35.4667 31.8287 35.4667L37.4891 26.4593L41.8868 30.0103Z" fill="#C96C38"/>
<path fill-rule="evenodd" clip-rule="evenodd" d="M40.0145 28.4513C38.0551 30.2268 34.6589 33.388 32.4383 36.8524C31.8287 36.2462 31.8287 35.4234 31.8287 35.4234C33.8752 31.4826 35.6168 28.841 37.402 26.3293L40.0145 28.4513Z" fill="#A15641"/>
<path fill-rule="evenodd" clip-rule="evenodd" d="M80.3774 32.5652C87.2133 33.5612 92.5254 32.7818 97.1843 28.9276C101.843 25.0735 105.544 21.9122 109.942 21.6524C114.34 21.3926 118.694 23.1248 117.823 26.1561C116.996 29.1441 113.861 43.5647 105.806 44.6906C83.9042 44.6906 75.6313 49.6706 52.9463 43.8678C41.6255 40.9664 32.3512 39.5806 30.5225 38.1516C33.3527 36.7658 36.5747 32.392 37.402 26.6758C38.1858 20.8729 34.0058 15.4165 33.0914 14.7236C36.1393 15.3732 44.3251 16.8456 45.1524 17.2786C51.8578 21.0461 50.4644 27.5852 58.1713 28.8843C64.3541 29.9236 80.3774 32.5652 80.3774 32.5652Z" fill="#A15641"/>
<path fill-rule="evenodd" clip-rule="evenodd" d="M42.9753 16.6724C44.1074 16.9322 44.9347 17.1054 45.1524 17.2353C51.8578 21.0028 50.4644 27.5419 58.1713 28.841C61.2192 29.3607 66.6618 30.2701 71.3643 31.0496C71.2337 32.0456 70.8418 32.6518 70.0581 32.5219C69.1437 32.3487 60.3483 31.1795 57.6488 30.6165C54.9492 30.0536 52.6851 29.2741 51.553 27.2387C48.2438 21.4359 47.1118 20.2667 42.9753 16.6724Z" fill="#A15641"/>
<path fill-rule="evenodd" clip-rule="evenodd" d="M42.9753 16.6724C44.1074 16.9322 45.2395 17.0188 45.4572 17.1487C52.1626 20.9162 50.4644 27.5419 58.1713 28.8843C61.2192 29.404 66.6618 30.3134 71.3643 31.0929C71.2337 32.0889 70.8418 32.6951 70.0581 32.5652C69.1437 32.392 60.3483 31.2228 57.6488 30.6598C54.9492 30.0969 52.6851 29.3174 51.553 27.282C48.2438 21.4359 47.1118 20.2667 42.9753 16.6724Z" fill="#FDCF9D"/>
<path fill-rule="evenodd" clip-rule="evenodd" d="M111.597 41.0963C110.073 39.7538 106.11 37.5886 102.192 36.506C98.2729 35.4234 96.0087 34.7738 95.9216 35.8131C95.8345 36.8524 105.762 45.5567 111.03 48.3715C116.299 51.1863 122.003 50.7966 119.216 47.9385C116.604 45.167 111.597 41.0963 111.597 41.0963Z" fill="#A15641"/>
<path fill-rule="evenodd" clip-rule="evenodd" d="M36.6618 15.2866C36.6618 15.2866 42.1916 19.1407 41.103 28.2348C40.0581 37.3288 34.3541 38.8444 33.0479 39.3208C33.0479 39.3208 24.9492 37.8484 21.4224 36.5926C17.8955 35.3368 13.4978 30.6598 14.4993 23.6878C15.5443 16.7157 19.9855 12.8615 25.5588 13.3812C31.1321 13.9442 36.6618 15.2866 36.6618 15.2866Z" fill="#C16F4A"/>
<path fill-rule="evenodd" clip-rule="evenodd" d="M15.5007 31.2661C19.2453 29.1009 25.5588 25.9829 28.9986 26.9789C33.0914 28.1915 38.926 28.6678 41.0595 28.7977C39.8404 37.3721 34.3541 38.8445 33.0914 39.2775C33.0914 39.2775 24.9927 37.8051 21.4659 36.5493C19.3759 35.8564 17.0247 33.9943 15.5007 31.2661Z" fill="#B46538"/>
<path fill-rule="evenodd" clip-rule="evenodd" d="M14.4993 23.6878C15.5007 17.0188 19.6372 12.6883 24.9057 13.3812C28.389 13.8576 32.1771 17.2786 31.4804 25.1168C30.8708 32.0023 27.4311 37.7618 21.9884 36.7658C19.2453 36.2895 13.2366 32.3054 14.4993 23.6878Z" fill="#58595B"/>
<path fill-rule="evenodd" clip-rule="evenodd" d="M22.9463 15.9362C26.6038 16.5424 28.0406 23.2547 26.299 27.9316C24.5573 32.6085 18.6357 34.7738 16.9811 28.9276C15.3266 23.0815 18.0697 18.2313 19.463 16.9755C20.8128 15.7629 22.9463 15.9362 22.9463 15.9362Z" fill="#DCE2D0"/>
<path fill-rule="evenodd" clip-rule="evenodd" d="M24.1655 25.3333C24.0784 25.8963 24.2961 26.416 24.6879 26.5026C25.0798 26.5459 25.4717 26.1561 25.5588 25.5932C25.6459 25.0302 25.4282 24.5105 25.0363 24.4239C24.6444 24.3373 24.2525 24.7704 24.1655 25.3333Z" fill="#58595B"/>
<path fill-rule="evenodd" clip-rule="evenodd" d="M21.074 17.5818C20.9434 18.0148 21.0305 18.4479 21.3353 18.5345C21.6401 18.6211 21.9448 18.3179 22.119 17.8416C22.2496 17.4085 22.1626 16.9755 21.8578 16.8889C21.553 16.8456 21.2046 17.1487 21.074 17.5818Z" fill="#58595B"/>
<path fill-rule="evenodd" clip-rule="evenodd" d="M19.0711 30.4C18.984 30.8764 19.2888 31.3094 19.6807 31.396C20.1161 31.4826 20.508 31.1362 20.5951 30.6598C20.6821 30.1835 20.3774 29.7504 19.9855 29.6638C19.5501 29.6205 19.1147 29.9237 19.0711 30.4Z" fill="#9AA08D"/>
<path fill-rule="evenodd" clip-rule="evenodd" d="M16.5893 20.8729C16.5893 20.8729 13.3237 8.14132 13.9332 4.89346C14.5864 1.64559 19.463 1.08263 19.3759 8.44445C19.2888 15.8496 19.0276 20.0502 19.0276 20.0502C19.0276 20.0502 17.2424 19.5738 16.5893 20.8729Z" fill="#929497"/>
<path fill-rule="evenodd" clip-rule="evenodd" d="M14.8476 3.16126C16.4586 1.7322 19.4194 2.64161 19.3759 8.40115C19.2888 15.8063 19.0276 20.0068 19.0276 20.0068C19.0276 20.0068 18.5051 19.8769 17.939 19.9635C18.3744 14.8536 18.8969 5.2399 15.8926 3.42109C15.5443 3.24787 15.1959 3.20457 14.8476 3.16126Z" fill="#A6A8AB"/>
<path fill-rule="evenodd" clip-rule="evenodd" d="M85.4282 33.388C83.9042 33.2148 77.852 32.392 75.6749 32.0456L74.7605 30.7464C82.8592 32.4786 90 34.8604 97.1408 28.9276C101.8 25.0735 105.501 21.9122 109.898 21.6524C113.774 21.4359 117.605 22.735 117.866 25.1168C105.022 14.7236 99.5791 35.4667 85.4282 33.388Z" fill="#C96C38"/>
<path fill-rule="evenodd" clip-rule="evenodd" d="M21.3788 19.314C21.3788 19.314 23.3817 21.1328 22.8157 24.0342C22.2496 26.9356 20.3338 27.9316 19.1582 28.2348C15.6313 27.8883 11.3643 24.2074 12.1045 22.1288C13.4107 18.4912 21.3788 19.314 21.3788 19.314Z" fill="#58595B"/>
<path fill-rule="evenodd" clip-rule="evenodd" d="M21.3788 19.314C21.3788 19.314 22.7286 20.5265 22.9028 22.5618C20.1161 23.4279 16.6763 23.6012 13.0624 22.9949C12.7141 22.9516 12.4093 22.865 12.061 22.8217C12.061 22.6051 12.061 22.3886 12.148 22.1721C13.4107 18.4912 21.3788 19.314 21.3788 19.314Z" fill="#6D6E70"/>
<path fill-rule="evenodd" clip-rule="evenodd" d="M19.5501 26.5892C19.5501 26.5892 23.2511 40.9664 22.5544 44.6906C21.8578 48.3715 16.328 49.0211 16.4151 40.6632C16.5022 32.3054 16.8505 27.5419 16.8505 27.5419C16.8505 27.5419 18.6792 27.4553 19.5501 26.5892Z" fill="#929497"/>
<path fill-rule="evenodd" clip-rule="evenodd" d="M73.5414 41.8325C72.3222 41.053 57.5617 33.7345 49.7242 36.7225C47.0247 37.7618 94.9637 71.1065 101.364 74.3111C108.505 76.4763 117.649 75.7835 119.913 75.3937C101.234 61.3197 82.119 47.2889 73.5414 41.8325Z" fill="#C96C38"/>
<path fill-rule="evenodd" clip-rule="evenodd" d="M50.7692 36.3761C50.3774 36.506 50.2032 36.506 49.7242 36.7225C47.0247 37.7185 94.9637 71.1066 101.364 74.3111C109.202 76.7362 116.952 76.0433 119.913 75.3937C112.337 73.2285 106.981 73.0986 101.756 73.1419L50.7692 36.3761Z" fill="#A15641"/>
<path fill-rule="evenodd" clip-rule="evenodd" d="M19.5936 46.033C17.0682 45.5567 16.8505 39.1909 17.0682 33.7345V33.6912C17.0682 33.6045 17.0682 33.5612 17.0682 33.4746C17.1118 32.3487 17.1988 31.2661 17.2424 30.2701C17.2424 30.1402 17.2424 30.0535 17.2859 29.9669C17.3295 29.1875 17.4165 28.4946 17.4601 27.8883C17.4601 27.7584 17.4601 27.6285 17.5036 27.4986C17.1118 27.5852 16.807 27.5852 16.807 27.5852C16.807 27.5852 16.807 27.5852 16.807 27.6285C16.807 27.7151 16.807 27.9316 16.7634 28.2347C16.7199 28.7544 16.6763 29.5339 16.6328 30.6165C16.5893 31.2661 16.5893 31.959 16.5457 32.7818C16.5457 32.8684 16.5457 32.955 16.5457 33.0849C16.4586 35.1202 16.4151 37.6752 16.3716 40.6632C16.2845 48.6746 21.3353 48.4148 22.4238 45.1236C22.5109 44.8638 22.5544 44.6906 22.5544 44.6906C22.5544 44.6906 21.1611 46.2929 19.5936 46.033Z" fill="#A6A8AB"/>
<path fill-rule="evenodd" clip-rule="evenodd" d="M64.7896 20.0934C72.0174 22.1721 77.4601 27.7584 80.3338 32.5652C80.4209 32.9117 77.939 32.955 75.6314 32.5652C73.0189 32.0889 69.8404 31.4393 69.3614 31.3527C71.3208 26.6325 67.9245 21.7823 64.7896 20.0934Z" fill="#A15641"/>
<path fill-rule="evenodd" clip-rule="evenodd" d="M64.7896 20.0934C66.3135 20.5265 67.7504 21.1328 69.1001 21.8256C69.4485 22.3453 69.7533 22.865 70.0145 23.3413C70.6676 24.5971 71.8868 29.6638 71.1901 31.6991C70.2322 31.5259 69.5355 31.3527 69.3178 31.3094C71.3207 26.6325 67.9245 21.7823 64.7896 20.0934Z" fill="#FDCF9D"/>
<path fill-rule="evenodd" clip-rule="evenodd" d="M98.8824 35.7265C99.8404 35.8997 100.972 36.2029 102.192 36.506C106.11 37.5886 110.073 39.7539 111.597 41.0963C111.597 41.0963 116.604 45.2103 119.26 47.9385C119.695 48.3715 119.913 48.7613 120 49.0644C118.824 48.9345 118.476 48.8912 117.605 48.6747C116.734 48.5014 110.552 46.3795 108.07 44.2143C105.675 42.1789 101.321 37.9784 98.8824 35.7265Z" fill="#C96C38"/>
<path fill-rule="evenodd" clip-rule="evenodd" d="M67.5327 30.4C67.9681 29.5772 68.5341 28.7544 68.1858 27.1521C67.8374 25.5498 65.0508 24.6838 64.2235 24.0775C61.7852 23.1248 61.3062 22.6917 60.7402 22.735C60.0871 22.8216 59.1292 23.3413 58.1713 24.0775C58.3019 26.286 57.1263 27.6718 56.3425 28.3214C56.9086 28.4946 57.5181 28.6678 58.1713 28.7977C60.3919 29.2308 63.9187 29.837 67.5327 30.4Z" fill="#5A666E"/>
<path fill-rule="evenodd" clip-rule="evenodd" d="M63.5269 29.7504L63.8752 29.7937C64.3106 29.2741 64.7025 28.8843 65.0073 28.2781L63.5269 29.7504Z" fill="#43525A"/>
</g>
<defs>
<clipPath id="clip0">
<rect width="120" height="76" fill="white"/>
</clipPath>
</defs>
</svg>
