<svg width="716" height="184" viewBox="0 0 716 184" fill="none" xmlns="http://www.w3.org/2000/svg">
<g filter="url(#filter0_d)">
<g clip-path="url(#clip0)">
<path d="M368.584 55.2061C367.045 59.361 365.565 63.5752 364.026 67.7301C362.132 72.8941 354.674 75.0309 350.235 71.707C349.288 71.0541 348.874 70.045 348.519 68.9766C346.862 64.1094 345.263 59.2423 343.606 54.3751L343.665 54.4344C343.488 54.019 343.251 53.5441 343.073 53.1286V53.2473C342.837 52.7725 342.659 52.2976 342.422 51.8822C341.89 50.3983 341.416 48.9737 340.883 47.4898C340.765 47.5492 340.647 47.6085 340.528 47.6085C340.528 55.2061 340.528 62.863 340.528 70.4605C340.469 71.0541 340.351 71.6476 340.292 72.3005V72.2412C340.114 74.4967 338.457 75.209 336.622 75.3277C333.958 75.5058 331.295 75.4464 328.631 75.387C325.79 75.2683 324.725 73.6064 324.843 70.876C325.258 62.2694 325.435 53.7222 326.086 45.1156C326.678 37.6961 325.79 30.336 325.613 22.9165C325.494 18.9397 325.317 15.0222 325.198 11.0454C325.08 8.1963 326.678 6.83112 329.282 6.65305C331.828 6.5937 334.314 6.5937 336.799 6.77176C339.049 6.89048 340.588 8.07759 341.475 10.2738C345.145 19.7707 348.933 29.2082 352.662 38.6458C353.313 40.3078 353.905 41.9697 354.615 43.6317C354.911 44.344 355.266 45.1156 356.273 45.1156C357.279 45.1156 357.516 44.2253 357.811 43.513C359.469 39.4174 361.126 35.2625 362.665 31.1076C365.092 24.4598 367.578 17.7526 369.768 10.986C370.774 8.01823 372.49 6.53434 375.568 6.5937C377.521 6.5937 379.534 6.53434 381.487 6.65305C385.275 6.89048 386.4 7.95888 386.4 11.7576C386.34 16.9216 386.044 22.0262 385.985 27.1308C385.926 41.1388 385.985 55.2061 385.926 69.214C385.926 74.3186 385.038 75.209 379.948 75.387C370.655 75.7432 370.241 75.3277 370.537 66.0088C370.655 62.3881 371.247 58.7081 370.951 55.0874C371.188 53.3067 371.958 51.526 370.892 48.7957C369.945 51.4667 369.294 53.3067 368.584 55.2061Z" fill="#FEE203"/>
<path d="M51.0956 44.2846C49.8526 45.1749 49.6159 46.5995 49.2015 47.9053C46.8932 55.3841 44.7032 62.863 42.3948 70.2824C41.0335 74.8528 40.0273 75.6245 35.233 75.6245C33.9308 75.6245 32.6879 75.6245 31.3857 75.5651C29.3733 75.5057 28.2487 74.5561 27.5977 72.4786C21.9155 53.5441 16.2926 34.6096 7.88781 16.6842C6.23053 13.1228 6.76323 11.6389 10.3145 10.0363C21.3236 5.05045 20.8501 6.11885 24.2239 15.7938C27.1833 24.2817 29.9652 32.8289 32.8654 41.3168C33.2206 42.2665 33.339 43.7504 34.6411 43.7504C35.8841 43.7504 36.1208 42.3259 36.476 41.3168C39.4354 33.3631 41.8029 25.1721 44.2297 17.0403C45.7094 12.0544 51.4507 9.91762 56.1266 12.4699C57.4288 13.1822 57.6655 14.3693 58.0206 15.6751C59.9739 23.5101 62.223 31.3451 65.0049 38.9426C65.2417 39.4768 65.36 40.0704 65.5968 40.6046C66.1295 41.7323 66.2479 43.6317 67.6092 43.6317C69.1481 43.6317 69.3849 41.7323 69.7992 40.4858C72.5811 32.1167 75.2446 23.8069 77.9672 15.4377C78.4408 13.9538 79.0326 12.4699 79.6245 10.986C81.4002 6.77176 82.4656 6.29692 86.9047 7.72146C95.0136 10.3331 96.2565 12.4699 92.7644 20.1862C85.425 36.3309 80.1572 53.188 75.4813 70.2824C74.2975 74.6154 73.0546 75.4464 68.5562 75.5058C67.6684 75.5058 66.7806 75.4464 65.8927 75.5058C62.9333 75.8025 61.276 74.378 60.4474 71.6476C58.0798 63.694 55.6531 55.7403 53.2264 47.846C52.812 46.5995 52.5753 45.0562 51.0956 44.2846Z" fill="#FEE204"/>
<path d="M470.388 132.547C470.033 125.839 469.619 119.132 469.264 112.425C469.145 110.466 469.086 108.448 468.968 106.489C468.909 105.362 468.849 104.293 469.323 103.284C470.388 100.791 475.775 99.6041 480.746 100.673C483.824 101.325 485.067 102.987 484.949 106.489C484.12 124.474 484.475 142.459 485.067 160.444C485.304 168.813 484.653 169.347 476.426 169.525C472.282 169.644 469.678 168.219 467.607 164.539C461.747 154.33 455.354 144.477 448.548 134.921C448.193 134.446 447.897 133.912 447.482 133.496C446.95 132.903 446.476 132.072 445.588 132.309C444.582 132.606 444.996 133.674 444.996 134.387C445.056 142.281 445.174 150.175 445.233 158.129C445.233 160.681 445.174 163.234 445.115 165.845C445.056 168.338 443.576 169.347 441.327 169.466C439.078 169.525 436.769 169.585 434.52 169.525C430.85 169.407 429.903 168.397 430.022 164.539C430.199 159.316 430.554 154.093 430.732 148.869C431.205 134.921 430.022 121.032 429.607 107.083C429.489 102.097 430.554 101.207 435.526 100.673C441.268 100.079 445.292 101.8 448.429 107.202C454.23 117.292 460.859 126.908 467.133 136.701C467.311 136.761 467.429 136.88 467.488 137.058C468.198 138.126 468.672 139.432 470.448 140.441C470.388 137.473 470.388 135.04 470.388 132.547Z" fill="#FEE203"/>
<path d="M584.8 42.2071C585.688 51.2885 582.373 60.4886 574.442 67.552C560.296 80.1948 540.823 75.9805 532.241 62.4474C526.855 53.9002 525.789 44.6407 526.44 34.847C526.973 26.7746 529.577 19.7706 535.437 14.1911C543.723 6.35618 553.549 4.16002 564.439 7.42459C575.508 10.7485 581.841 18.2273 584.09 29.3862C584.8 33.1256 584.682 36.8651 584.8 42.2071ZM568.582 40.5451C568.582 39.0612 568.76 37.5773 568.523 36.0934C567.991 32.0572 567.635 27.9023 564.143 25.1126C558.224 20.3048 546.742 23.0945 543.901 30.0985C541.119 37.1025 541.297 44.2845 544.374 51.1698C547.807 58.7673 557.751 60.3699 563.847 54.6124C568.05 50.8137 568.997 45.8871 568.582 40.5451Z" fill="#FEE203"/>
<path d="M317.149 40.9606C318.096 50.1607 315.61 58.1144 309.809 65.059C298.504 78.5922 276.368 79.6606 265.536 63.6345C257.25 51.4072 256.599 37.9335 261.571 24.519C267.43 8.78977 285.187 2.31999 300.576 9.08654C311.467 13.835 315.965 22.6197 317.149 33.7192C317.386 36.1528 317.149 38.6457 317.149 40.9606ZM301.227 41.7916C301.168 38.0522 301.168 35.4999 300.635 32.9476C299.333 26.5965 296.67 23.9255 290.751 23.3319C283.53 22.6197 278.38 24.9345 276.427 30.6327C274 37.5773 273.941 44.7 277.078 51.4666C280.689 59.2422 290.514 60.7854 296.729 54.8498C300.754 50.873 301.464 45.9465 301.227 41.7916Z" fill="#FEE203"/>
<path d="M421.558 6.71242C426.885 6.71242 432.212 6.65306 437.539 6.71242C441.386 6.77177 442.688 7.89953 443.043 11.7577C443.28 14.4287 443.339 17.0997 442.925 19.7707C442.392 23.2133 441.563 24.163 438.071 23.8662C431.561 23.332 425.05 23.3914 418.598 23.3914C413.922 23.3914 413.686 23.6288 413.686 28.1398C413.626 34.1348 413.626 34.1941 419.545 34.1941C423.57 34.1941 427.654 34.0754 431.679 34.0754C434.934 34.0754 435.822 34.9658 436.236 38.2303C436.532 41.0794 436.769 43.9285 436.355 46.7776C435.941 49.4486 434.461 50.7544 431.738 50.7544C426.825 50.695 421.854 50.7544 416.941 50.5763C414.1 50.517 413.094 51.7041 413.094 54.4938C413.094 57.2242 414.1 58.4113 416.941 58.4113C423.925 58.2926 430.909 58.3519 437.953 58.3519C442.037 58.3519 442.984 59.3016 443.221 63.3972C443.398 65.9495 443.221 68.5018 442.806 71.0541C442.333 74.378 441.267 75.4464 438.012 75.2683C430.258 74.7341 422.445 74.9122 414.633 74.9715C410.904 75.0309 407.175 75.4464 403.387 75.387C398.356 75.387 397.468 74.4374 397.764 69.3921C398.474 56.4526 399.244 43.513 398.829 30.5734C398.652 24.7566 398.297 18.9397 398.001 13.1228C397.764 8.31502 398.356 7.5434 402.972 7.00919C403.564 6.94984 404.156 6.83113 404.748 6.83113C410.371 6.83113 415.994 6.83113 421.617 6.83113C421.558 6.83113 421.558 6.77177 421.558 6.71242Z" fill="#FEE204"/>
<path d="M398.06 169.406C392.023 169.406 386.044 169.466 380.007 169.406C376.278 169.347 375.095 167.982 375.272 164.242C375.746 154.686 376.397 145.13 376.633 135.514C376.87 126.136 376.042 116.758 375.509 107.38C375.213 102.394 376.219 101.147 381.25 101.147C392.792 101.029 404.334 101.029 415.816 101.029C419.19 101.029 420.374 102.038 420.551 105.302C420.729 107.973 420.729 110.644 420.551 113.315C420.256 117.055 418.657 118.479 414.929 118.123C408.122 117.47 401.315 117.886 394.568 117.708C391.963 117.648 391.076 118.835 391.076 121.269C391.076 129.46 390.543 128.392 397.882 128.451C401.611 128.451 405.399 128.451 409.128 128.392C411.851 128.332 413.39 129.519 413.804 132.25C414.218 135.514 414.277 138.719 413.745 141.984C413.33 144.358 412.087 145.308 409.661 145.249C404.63 145.071 399.599 145.011 394.568 145.071C391.135 145.071 390.602 145.783 390.602 149.047C390.602 151.778 391.786 152.906 394.568 152.846C401.493 152.727 408.359 152.787 415.284 152.787C419.664 152.787 420.611 153.736 420.729 158.188C420.788 160.562 420.847 162.937 420.67 165.311C420.433 168.457 419.249 169.466 416.112 169.466C413.035 169.525 410.016 169.406 406.938 169.406C403.979 169.406 401.019 169.406 398.06 169.406C398.06 169.347 398.06 169.347 398.06 169.406Z" fill="#FEE203"/>
<path d="M124.134 7.24658C129.876 7.24658 135.558 7.24658 141.299 7.24658C144.732 7.24658 145.975 8.4337 146.093 11.817C146.212 14.6661 146.153 17.5745 145.975 20.4236C145.798 23.1539 144.318 24.341 141.477 24.2223C134.374 23.9849 127.271 24.0443 120.169 23.8662C117.979 23.8068 116.913 24.5191 116.795 26.834C116.203 36.4496 116.44 34.4909 123.602 34.6689C127.449 34.7283 131.296 34.7283 135.144 34.6096C137.689 34.5502 139.05 35.7374 139.287 38.2303C139.642 41.4949 139.701 44.7594 139.287 48.024C138.991 50.4576 137.748 51.5853 135.084 51.4666C129.935 51.2292 124.845 51.3479 119.695 51.1699C117.446 51.1105 116.203 51.5853 116.322 54.2564C116.499 58.3519 116.617 58.8861 119.873 58.8861C126.68 58.9455 133.486 58.8861 140.293 58.8861C145.265 58.8861 145.738 59.361 146.271 64.4062C146.508 66.9585 146.33 69.5701 146.034 72.1224C145.797 74.4373 144.614 75.7431 142.128 75.6244C129.935 74.9715 117.683 75.5057 105.49 75.6244C101.702 75.6838 100.873 74.7341 100.992 70.7573C101.288 62.3881 101.761 53.9596 102.116 45.5904C102.59 34.9064 101.465 24.2817 101.347 13.5977C101.288 8.61177 101.939 7.60272 106.911 7.48401C112.652 7.36529 118.334 7.48401 124.075 7.48401C124.134 7.30594 124.134 7.30594 124.134 7.24658Z" fill="#FEE202"/>
<path d="M29.906 170C23.9871 170 18.0683 170.059 12.1494 170C7.82862 169.941 6.8816 168.991 6.99998 164.717C7.4143 152.134 8.65726 139.61 8.18375 127.086C7.947 120.794 7.4143 114.443 7.11836 108.151C6.82241 102.809 7.82862 101.741 13.0372 101.681C24.4015 101.622 35.7065 101.563 47.0707 101.563C50.6221 101.563 51.9834 102.869 52.1018 106.311C52.2201 108.864 52.161 111.475 52.0426 114.027C51.865 117.529 50.9772 118.36 47.4851 118.36C40.5008 118.301 33.4573 118.301 26.4731 118.064C23.6912 117.945 22.685 118.895 22.5074 121.684C22.1523 128.985 22.0339 128.985 29.4325 128.985C33.2798 128.985 37.127 129.044 40.9743 128.926C43.697 128.807 45.1175 130.172 45.2951 132.665C45.4726 135.692 45.4726 138.779 45.2951 141.865C45.1175 144.596 43.4602 145.723 40.6784 145.723C35.9433 145.723 31.2673 144.892 26.4731 145.249C22.5666 145.545 21.0869 147.86 22.4482 151.659C23.0401 153.202 24.4015 153.262 25.6444 153.262C31.7409 153.262 37.8965 153.202 43.9929 153.202C45.1767 153.202 46.3605 153.084 47.5442 153.084C50.7404 153.202 51.865 154.211 51.9834 157.357C52.1018 160.325 52.0426 163.293 51.9834 166.261C51.9242 168.872 50.7404 170.178 47.9586 170.119C41.9213 170 35.9433 170.059 29.906 170.059C29.906 169.941 29.906 170 29.906 170Z" fill="#FEE202"/>
<path d="M111.705 151.422C111.705 155.992 111.823 160.503 111.705 165.074C111.586 168.932 110.639 169.822 106.911 169.941C103.774 170.059 100.577 170.297 97.5587 169.11C95.6647 168.397 93.889 169.288 91.995 169.407C71.9892 171.009 58.4942 158.723 57.6063 137.829C57.192 128.689 58.6125 119.904 64.1763 112.247C74.5935 97.8829 96.4341 96.8738 108.035 110.229C108.864 111.179 109.515 112.306 110.225 113.375C111.705 115.749 111.113 117.767 108.923 119.251C106.555 120.854 103.892 122.041 101.169 122.812C99.0976 123.406 97.4995 122.278 96.079 121.032C93.3563 118.776 90.1009 118.004 86.7272 117.767C81.2818 117.411 76.961 119.785 74.9486 124.949C72.1668 132.131 71.8116 139.432 75.9548 146.317C79.6837 152.49 84.5964 154.033 91.3439 151.422C96.1974 149.582 97.026 148.276 97.026 143.112C97.026 140.916 96.9668 138.779 96.9668 136.583C96.9668 134.209 98.3282 133.021 100.518 132.606C100.814 132.547 101.11 132.547 101.406 132.547C111.409 131.834 112.356 132.784 111.942 142.815C111.823 145.664 111.942 148.573 111.942 151.422C111.823 151.422 111.764 151.422 111.705 151.422Z" fill="#FEE203"/>
<path d="M579.118 150.235C582.018 146.199 582.018 141.45 582.137 136.88C582.433 126.908 582.196 116.936 582.137 106.905C582.077 101.741 583.261 100.376 588.411 100.257C590.305 100.198 592.14 100.376 593.974 100.969C596.105 101.622 597.407 103.047 597.585 105.184C598.946 120.082 599.538 135.04 596.519 149.76C594.093 161.453 584.327 169.229 572.903 169.288C560.77 169.347 551.359 161.987 548.458 150.116C545.972 140.026 546.683 129.698 546.564 119.429C546.505 115.393 546.623 111.297 546.86 107.261C547.097 102.869 549.169 100.851 553.489 100.435C554.259 100.376 555.087 100.376 555.857 100.316C560.888 100.257 563.729 101.326 563.019 107.795C561.717 119.488 562.249 131.3 563.374 142.993C563.611 145.486 564.143 147.86 565.209 150.116V150.057C565.386 150.353 565.564 150.65 565.741 150.947C565.978 151.125 566.156 151.244 566.392 151.422C570.358 154.271 575.152 154.152 578.23 151.066C578.289 150.947 578.349 150.888 578.467 150.888L578.585 150.828C578.822 150.591 579 150.413 579.236 150.175C579.236 150.235 579.118 150.235 579.118 150.235Z" fill="#FEE203"/>
<path d="M517.266 169.288C510.578 169.941 504.599 167.626 499.036 163.946C495.425 161.512 493.946 158.544 494.833 155.577C495.721 152.668 501.167 148.395 504.008 148.335C505.487 148.335 506.612 149.107 507.796 149.819C512.945 153.024 518.568 152.431 524.191 151.837C525.375 151.719 526.44 150.947 526.677 149.582C526.914 148.217 526.144 147.267 525.138 146.614C522.415 144.774 519.337 143.706 516.26 142.637C511.998 141.153 507.559 140.085 503.593 137.77C495.721 133.14 492.17 125.543 493.946 116.995C495.78 108.329 503.179 101.504 511.584 100.494C520.403 99.4261 528.157 102.097 534.963 107.558C538.574 110.466 538.751 112.306 535.91 116.046C535.082 117.114 534.016 118.064 533.069 119.073C530.642 121.566 528.097 122.1 524.901 120.319C521.705 118.539 518.213 117.411 514.425 117.708C512.649 117.886 510.696 118.064 510.163 120.141C509.571 122.456 511.051 123.821 512.886 124.89C515.076 126.077 517.503 126.611 519.87 127.264C526.203 128.926 532.359 131.122 537.212 135.752C544.789 142.993 545.084 154.033 537.982 161.75C532.418 167.804 525.375 169.822 517.266 169.288Z" fill="#FEE204"/>
<path d="M344.316 169.347C338.102 170 332.36 168.338 326.974 165.014C325.317 163.946 323.778 162.759 322.535 161.156C321.766 160.206 321.055 159.197 321.055 157.951C321.055 154.033 324.074 152.193 326.737 150.175C328.927 148.573 331.236 147.86 333.84 149.582C338.989 153.024 344.731 153.143 350.59 152.075C352.011 151.837 353.372 151.184 353.55 149.582C353.727 148.157 352.662 147.207 351.597 146.495C347.69 144.062 343.31 142.815 339.049 141.391C336.444 140.56 333.781 139.729 331.354 138.423C321.292 133.021 319.102 125.602 321.055 115.868C322.772 107.142 331.236 100.851 340.469 100.316C348.637 99.8415 355.562 102.75 361.777 107.736C365.21 110.466 365.328 112.603 362.665 116.105C361.777 117.292 360.653 118.242 359.587 119.31C357.279 121.566 354.911 122.159 351.833 120.438C348.815 118.776 345.5 117.648 341.949 117.648C339.759 117.648 337.391 117.945 336.799 120.616C336.326 123.109 338.22 124.296 340.114 125.246C342.541 126.433 345.204 126.848 347.69 127.62C353.491 129.341 359.173 131.359 363.671 135.633C371.898 143.468 371.425 156.17 362.783 163.649C357.515 168.397 351.301 169.941 344.316 169.347Z" fill="#FEE204"/>
<path d="M183.264 158.485C183.856 146.911 184.507 135.396 183.974 123.821C183.678 118.182 183.56 112.544 183.205 106.964C183.027 104.234 184.329 102.987 186.815 102.453C196.641 100.494 206.407 100.316 216.114 102.987C222.624 104.768 228.484 107.38 231.799 114.027C236.119 122.753 233.811 133.734 226.057 139.61C219.132 144.892 211.083 146.851 202.559 147.385C198.535 147.623 198.179 147.86 198.357 151.956C198.475 156.111 198.771 160.266 198.771 164.421C198.771 168.516 197.292 169.881 193.148 169.941C191.077 170 189.005 170 186.934 169.941C184.625 169.881 183.264 168.753 183.323 166.261C183.264 163.59 183.264 161.037 183.264 158.485ZM198.594 124.533C198.416 130.232 198.416 130.232 204.039 129.579C204.335 129.519 204.631 129.579 204.927 129.519C208.419 128.866 211.911 128.332 215.107 126.67C216.706 125.839 217.83 124.652 217.653 122.693C217.475 120.853 215.995 120.379 214.634 119.904C211.615 118.895 208.538 118.36 205.341 118.301C198.831 118.123 198.831 118.182 198.594 124.533Z" fill="#FEE203"/>
<path d="M656.3 162.996C656.359 164.005 655.294 164.895 654.11 165.608C651.861 166.914 649.493 167.804 647.008 168.575C643.634 169.585 642.036 169.11 641.148 165.667C639.964 161.215 637.241 160.325 633.276 160.503C629.547 160.622 625.759 160.444 622.03 160.325C619.662 160.266 618.301 161.393 617.413 163.649C614.986 169.941 614.513 170.119 608.061 167.804C607.529 167.626 606.937 167.388 606.404 167.151C601.077 164.836 600.367 163.412 602.793 158.07C610.31 141.272 616.052 123.821 620.905 106.074C622.326 100.851 629.192 98.3576 633.927 101.147C635.762 102.216 636.117 104.115 636.59 105.896C640.201 119.073 644.285 132.072 649.316 144.774C651.091 149.166 653.045 153.499 654.939 157.832C655.531 159.257 656.182 160.681 656.3 162.996ZM628.718 145.605C632.802 145.605 633.749 145.071 633.098 142.518C632.329 139.491 631.204 136.523 630.198 133.556C629.902 132.725 629.31 132.131 628.541 132.131C627.712 132.072 627.594 133.021 627.357 133.615C626.528 135.811 625.699 138.067 624.989 140.263C623.391 145.011 623.805 145.545 628.718 145.605Z" fill="#FEE203"/>
<path d="M227.064 6.6531C237.777 6.59374 245.057 9.91767 250.562 16.8623C253.876 21.0766 253.343 23.5695 248.608 26.0624C247.247 26.7747 245.767 27.3683 244.347 28.0805C242.275 29.0896 240.322 28.8522 238.605 27.3683C234.995 24.2818 230.733 23.5695 226.176 23.8069C221.914 24.0443 218.836 26.0031 217.12 29.8612C213.865 37.2213 213.509 44.6408 217.593 51.7635C221.441 58.4707 227.3 60.1327 234.225 56.5713C235.646 55.859 236.948 54.9093 238.191 54.019C242.571 50.9325 249.141 52.0603 252.16 56.5713C253.876 59.1236 253.166 61.4978 251.568 63.694C247.069 69.8076 240.795 73.2503 233.634 74.9122C222.684 77.4052 213.628 73.7845 207.117 64.8218C197.647 51.8228 196.285 37.5775 203.092 23.0946C208.064 12.3513 216.706 6.41568 227.064 6.6531Z" fill="#FEE204"/>
<path d="M139.583 152.549C139.583 151.244 139.583 149.997 139.583 148.691C139.642 136.108 139.642 136.167 130.941 127.205C126.975 123.109 122.951 119.013 118.512 115.393C115.848 113.197 115.611 111.475 117.801 108.804C119.577 106.608 121.708 104.649 123.72 102.631C125.555 100.791 127.271 101.029 129.106 102.75C134.137 107.38 138.576 112.484 143.312 117.411C146.922 121.21 147.573 121.269 151.361 117.47C155.978 112.781 160.536 107.973 165.152 103.225C167.875 100.435 169.118 100.435 171.841 103.106C173.557 104.768 175.096 106.549 176.576 108.389C179.002 111.416 179.002 112.781 176.161 115.511C170.479 120.853 164.915 126.255 159.47 131.834C156.392 135.039 154.853 138.482 154.972 142.934C155.149 150.057 154.972 157.179 154.972 164.302C154.972 169.05 154.084 169.941 149.23 170C147.336 170 145.502 169.941 143.608 170C140.766 170.119 139.405 168.813 139.405 165.964C139.405 161.512 139.405 157.06 139.405 152.609C139.464 152.549 139.524 152.549 139.583 152.549Z" fill="#FEE204"/>
<path d="M505.428 48.7957C505.428 55.7403 505.428 62.6256 505.428 69.5702C505.428 74.0813 504.718 74.9122 500.22 75.2684C498.148 75.4464 496.076 75.2684 494.005 75.2684C491.045 75.209 489.743 73.7251 489.921 70.7573C490.217 65.1185 490.335 59.4797 490.749 53.9003C491.4 44.9969 491.282 36.1529 490.986 27.2495C490.868 23.3321 489.98 22.7385 486.014 22.9759C482.7 23.154 479.326 23.2727 475.952 23.3914C473.17 23.4508 471.395 22.2043 471.276 19.2959C471.158 16.6249 471.039 13.9539 471.158 11.2828C471.276 7.78086 472.519 6.47503 476.071 6.29696C479.681 6.1189 483.351 6.1189 487.02 6.1189C496.668 6.1189 506.316 6.17825 515.964 6.23761C517.325 6.23761 518.746 6.35632 520.107 6.47503C522.77 6.71245 524.25 8.2557 524.309 10.9267C524.369 13.7164 524.369 16.4468 524.309 19.2365C524.25 21.9075 522.83 23.5101 520.048 23.5695C516.496 23.6288 512.945 23.5101 509.394 23.4508C505.783 23.4508 505.428 23.6882 505.428 27.2495C505.428 34.3722 505.428 41.5543 505.428 48.7957Z" fill="#FEE203"/>
<path d="M264.471 100.554C271.929 100.85 279.446 100.198 286.903 100.91C289.863 101.147 291.165 102.512 291.165 105.421C291.106 108.211 291.224 110.941 291.106 113.731C290.928 116.936 289.685 118.182 286.489 118.242C283.174 118.242 279.801 118.064 276.486 117.767C273.704 117.47 272.816 118.42 272.698 121.328C271.988 134.98 272.343 148.632 272.52 162.224C272.52 163.53 272.461 164.777 272.402 166.082C272.343 168.101 271.218 169.288 269.324 169.347C266.246 169.466 263.228 169.466 260.15 169.406C257.487 169.347 256.954 167.448 257.013 165.311C257.131 161.868 257.309 158.426 257.546 154.924C258.256 143.587 258.73 132.25 258.019 120.853C257.842 117.589 257.072 116.877 253.758 117.292C250.206 117.708 246.655 117.767 243.104 117.708C239.848 117.708 238.605 116.461 238.487 113.256C238.369 110.466 238.428 107.736 238.487 104.946C238.487 102.572 239.434 101.088 242.097 100.85C248.194 100.198 254.29 100.672 260.387 100.613C261.689 100.554 263.109 100.554 264.471 100.554Z" fill="#FEE203"/>
<path d="M677.134 126.908C676.72 134.208 676.306 141.509 676.72 148.869C676.839 151.244 677.726 152.193 680.094 152.193C685.717 152.134 691.34 152.193 696.963 151.778C701.994 151.422 702.941 152.371 703 157.357C703 159.909 703 162.521 702.882 165.073C702.822 168.041 701.165 169.288 698.324 169.288C696.252 169.288 694.181 169.347 692.109 169.169C683.645 168.516 675.181 168.694 666.658 168.813C662.337 168.872 661.39 167.982 661.509 163.649C661.686 156.645 661.864 149.582 662.337 142.637C663.047 133.14 662.574 123.643 661.923 114.206C661.686 110.882 661.686 107.498 661.568 104.115C661.509 101.622 662.633 100.257 665.06 99.7821C667.783 99.2479 670.505 99.3072 673.287 99.7227C675.891 100.138 677.134 101.503 677.134 104.115C677.134 111.653 677.134 119.31 677.134 126.908Z" fill="#FEE203"/>
<path d="M183.323 58.2925C186.578 58.2925 189.834 58.4113 193.089 58.2332C195.22 58.1738 196.345 59.1829 196.404 61.1416C196.522 64.9997 196.522 68.8579 196.404 72.716C196.345 75.0902 194.569 75.5651 192.675 75.5651C188.354 75.5651 183.974 75.6244 179.653 75.3277C173.557 74.9122 167.461 74.9122 161.364 75.3277C156.274 75.6838 154.794 74.3186 155.208 69.3327C156.688 50.3982 156.688 31.4637 155.564 12.4699C155.268 7.30593 156.274 6.29688 161.542 6.05946C170.42 5.76268 171.249 6.53431 171.13 15.2596C170.953 28.1992 170.065 41.1387 170.42 54.0783C170.538 58.2332 170.657 58.4706 174.8 58.4706C177.641 58.53 180.541 58.4706 183.382 58.4706C183.323 58.4113 183.323 58.3519 183.323 58.2925Z" fill="#FEE203"/>
</g>
</g>
<defs>
<filter id="filter0_d" x="0" y="0" width="716" height="184" filterUnits="userSpaceOnUse" color-interpolation-filters="sRGB">
<feFlood flood-opacity="0" result="BackgroundImageFix"/>
<feColorMatrix in="SourceAlpha" type="matrix" values="0 0 0 0 0 0 0 0 0 0 0 0 0 0 0 0 0 0 127 0"/>
<feOffset dx="3" dy="4"/>
<feGaussianBlur stdDeviation="5"/>
<feColorMatrix type="matrix" values="0 0 0 0 0 0 0 0 0 0 0 0 0 0 0 0 0 0 0.6 0"/>
<feBlend mode="normal" in2="BackgroundImageFix" result="effect1_dropShadow"/>
<feBlend mode="normal" in="SourceGraphic" in2="effect1_dropShadow" result="shape"/>
</filter>
<clipPath id="clip0">
<rect x="7" y="6" width="696" height="164" fill="white"/>
</clipPath>
</defs>
</svg>
