<svg width="1440" height="387" viewBox="0 0 1440 387" fill="none" xmlns="http://www.w3.org/2000/svg">
<path opacity="0.3" d="M1450 378.044L-66.7918 387L-67 240.573C50.8131 261.61 317.246 308.267 406.126 314.307C553.288 324.305 823.884 325.347 822.635 314.307C821.386 303.268 690.667 322.014 411.954 281.189C178.409 246.822 -11.4238 142.261 -67 109.143V53.3218C-67 53.3218 119.295 198.082 478.146 225.368C836.997 252.237 1449.79 0 1449.79 0L1449.58 125.181C1225.61 185.793 1000.19 230.367 772.887 258.486C722.098 264.735 671.518 270.15 620.521 274.941C673.391 276.399 726.261 276.815 779.131 276.191C1002.68 273.899 1226.24 254.112 1449.58 216.62L1450 378.044Z" fill="url(#paint0_linear)"/>
<defs>
<linearGradient id="paint0_linear" x1="-88.7863" y1="542.672" x2="489.063" y2="300.811" gradientUnits="userSpaceOnUse">
<stop stop-color="#232222"/>
<stop offset="0.5302" stop-color="#1B1D1E"/>
<stop offset="1"/>
</linearGradient>
</defs>
</svg>
