<svg width="506" height="287" viewBox="0 0 506 287" fill="none" xmlns="http://www.w3.org/2000/svg">
<path d="M0 286.109L303.099 0L410.802 287L0 286.109Z" fill="#FAB74F"/>
<path d="M303.099 0L565 266.395L410.802 287L303.099 0Z" fill="#EC8825"/>
<path opacity="0.42" d="M274.26 70.6461C283.089 74.4728 290.74 80.36 300.156 82.7149C307.807 84.481 315.164 83.5979 322.815 82.7149C338.117 81.2431 357.833 82.1262 371.958 75.6503C373.135 75.0615 374.313 74.4728 375.49 73.8841L303.099 0L233.945 62.9928C247.482 63.2872 260.724 64.759 274.26 70.6461Z" fill="#EC8825"/>
<g opacity="0.47">
<path opacity="0.47" d="M281.617 103.614H188.922V105.969H281.617V103.614Z" fill="#A94D29"/>
</g>
<g opacity="0.47">
<path opacity="0.47" d="M354.891 144.236H278.38V146.591H354.891V144.236Z" fill="#A94D29"/>
</g>
<g opacity="0.47">
<path opacity="0.47" d="M296.331 124.514H262.195V126.869H296.331V124.514Z" fill="#A94D29"/>
</g>
<g opacity="0.47">
<path opacity="0.47" d="M221.586 153.95H185.685V156.305H221.586V153.95Z" fill="#A94D29"/>
</g>
<g opacity="0.47">
<path opacity="0.47" d="M246.01 168.668H213.346V171.023H246.01V168.668Z" fill="#A94D29"/>
</g>
<g opacity="0.47">
<path opacity="0.47" d="M382.552 204.285H257.193V206.64H382.552V204.285Z" fill="#A94D29"/>
</g>
<g opacity="0.47">
<path opacity="0.47" d="M275.143 225.479H192.159V227.834H275.143V225.479Z" fill="#A94D29"/>
</g>
<g opacity="0.47">
<path opacity="0.47" d="M144.781 219.003H61.7969V221.358H144.781V219.003Z" fill="#A94D29"/>
</g>
<g opacity="0.47">
<path opacity="0.47" d="M162.732 236.959H118.885V239.314H162.732V236.959Z" fill="#A94D29"/>
</g>
<g opacity="0.47">
<path opacity="0.47" d="M172.443 183.386H128.596V185.74H172.443V183.386Z" fill="#A94D29"/>
</g>
<g opacity="0.47">
<path opacity="0.47" d="M402.268 119.804H345.18V122.159H402.268V119.804Z" fill="#A94D29"/>
</g>
<g opacity="0.47">
<path opacity="0.47" d="M459.062 165.43H410.214V167.785H459.062V165.43Z" fill="#A94D29"/>
</g>
<g opacity="0.47">
<path opacity="0.47" d="M424.927 150.712H389.026V153.067H424.927V150.712Z" fill="#A94D29"/>
</g>
<g opacity="0.47">
<path opacity="0.47" d="M447.586 230.483H392.263V232.838H447.586V230.483Z" fill="#A94D29"/>
</g>
<g opacity="0.47">
<path opacity="0.47" d="M496.729 199.575H470.539V201.93H496.729V199.575Z" fill="#A94D29"/>
</g>
</svg>
